<svg xmlns="http://www.w3.org/2000/svg" viewBox="0 0 598.55 120"><defs><style>.cls-1{fill:#fa776c;}.cls-2{fill:#624cf5;}</style></defs><g id="Layer_2" data-name="Layer 2"><g id="Layer_1-2" data-name="Layer 1"><path class="cls-1" d="M0,27.66a10,10,0,0,1,15.15-8.57L40.29,34.17A20,20,0,0,1,50,51.32V68.68a20,20,0,0,1-9.71,17.15L15.14,100.91A10,10,0,0,1,0,92.34Z"/><path class="cls-2" d="M103.86,0a6,6,0,0,1,4.31,10.17L94.9,23.9A20,20,0,0,1,80.52,30h-25a20,20,0,0,1-10.29-2.85l-26.68-16A6,6,0,0,1,21.66,0Z"/><path class="cls-2" d="M103.86,120a6,6,0,0,0,4.31-10.17L94.9,96.1A20,20,0,0,0,80.52,90h-25a20,20,0,0,0-10.29,2.85l-26.68,16A6,6,0,0,0,21.66,120Z"/><path class="cls-1" d="M71,45h0A15,15,0,0,1,86,60h0A15,15,0,0,1,71,75h0A15,15,0,0,1,56,60h0A15,15,0,0,1,71,45Z"/><path d="M115.12,82.68,99.07,44.48h11.36l13.35,32.88H118.1L132,44.48H142.6l-16.12,38.2Z"/><path d="M166.1,83.25a24.27,24.27,0,0,1-11.43-2.56,18.84,18.84,0,0,1-7.6-7,19.08,19.08,0,0,1-2.7-10.12A19.86,19.86,0,0,1,147,53.43a18.21,18.21,0,0,1,7.25-7,21.59,21.59,0,0,1,10.47-2.52,21.1,21.1,0,0,1,10.12,2.41,18.12,18.12,0,0,1,7.13,6.82,20.27,20.27,0,0,1,2.63,10.57c0,.43,0,.92-.07,1.46s-.1,1-.15,1.53h-31V60.25h25.2l-4.33,1.91A10.11,10.11,0,0,0,173.06,57a8.84,8.84,0,0,0-3.34-3.44,9.68,9.68,0,0,0-5-1.25,9.91,9.91,0,0,0-5,1.25A8.69,8.69,0,0,0,156.37,57a11,11,0,0,0-1.21,5.28V64a10.57,10.57,0,0,0,1.42,5.54,9.39,9.39,0,0,0,3.91,3.58,13.18,13.18,0,0,0,6,1.25,14.06,14.06,0,0,0,5.29-.93A13,13,0,0,0,176,70.68l5.89,6.39a17.08,17.08,0,0,1-6.6,4.58A24.35,24.35,0,0,1,166.1,83.25Z"/><path d="M215.16,43.92a17.75,17.75,0,0,1,8.13,1.81,13.08,13.08,0,0,1,5.64,5.53A19.67,19.67,0,0,1,231,60.81V82.68H219.92V62.52q0-4.62-2-6.82a7.36,7.36,0,0,0-5.71-2.2,9.67,9.67,0,0,0-4.72,1.14A7.9,7.9,0,0,0,204.19,58,12.45,12.45,0,0,0,203,63.8V82.68H191.94V44.48h10.58V55.06l-2-3.19a14.16,14.16,0,0,1,5.9-5.9A18.15,18.15,0,0,1,215.16,43.92Z"/><path d="M236.39,53.86V45.34h26.48v8.52Zm20.16,29.39q-6.75,0-10.51-3.44t-3.76-10.26V36h11.15v33.3a5.36,5.36,0,0,0,1.24,3.77A4.36,4.36,0,0,0,258,74.45,7.31,7.31,0,0,0,262.59,73l2.91,7.81a11.66,11.66,0,0,1-4,1.81A20.19,20.19,0,0,1,256.55,83.25Z"/><path d="M284.1,73.45h27v9.23H272.67V33h37.56v9.23H284.1Zm-.85-20.52h23.92v9H283.25Z"/><path d="M335.64,83.25a18.84,18.84,0,0,1-8.52-1.85,13.09,13.09,0,0,1-5.75-5.68,20.25,20.25,0,0,1-2.06-9.65V44.48h11.08V64.36q0,4.83,2,7.07a7.33,7.33,0,0,0,5.72,2.24,9,9,0,0,0,4.54-1.14,8,8,0,0,0,3.16-3.41A12.32,12.32,0,0,0,347,63.44v-19h11v38.2H347.5V72.1l1.92,3.13a13.59,13.59,0,0,1-5.68,6A16.56,16.56,0,0,1,335.64,83.25Z"/><path d="M368.23,96.46v-52h10.58v7.81l-.21,11.36.71,11.29V96.46Zm22.51-13.21a16.24,16.24,0,0,1-8.38-2.13,14.21,14.21,0,0,1-5.64-6.5,26.27,26.27,0,0,1-2-11,27.45,27.45,0,0,1,1.92-11.07,13.58,13.58,0,0,1,5.57-6.46,16.7,16.7,0,0,1,8.56-2.13,19.28,19.28,0,0,1,9.76,2.45,18,18,0,0,1,6.82,6.85,20.49,20.49,0,0,1,2.52,10.36A20.44,20.44,0,0,1,407.32,74a18,18,0,0,1-6.82,6.82A19.38,19.38,0,0,1,390.74,83.25Zm-1.85-9.09a9.25,9.25,0,0,0,8.42-4.93,12.9,12.9,0,0,0,0-11.33,9.29,9.29,0,0,0-3.48-3.58,9.75,9.75,0,0,0-4.94-1.25,9.94,9.94,0,0,0-5,1.25,9.16,9.16,0,0,0-3.51,3.58,11.41,11.41,0,0,0-1.32,5.68,11.48,11.48,0,0,0,1.32,5.65,9.35,9.35,0,0,0,3.51,3.65A9.66,9.66,0,0,0,388.89,74.16Z"/><path d="M440.51,43.92a17.75,17.75,0,0,1,8.13,1.81,13.08,13.08,0,0,1,5.64,5.53,19.56,19.56,0,0,1,2.06,9.55V82.68H445.27V62.52q0-4.62-2-6.82a7.36,7.36,0,0,0-5.71-2.2,9.69,9.69,0,0,0-4.72,1.14A7.9,7.9,0,0,0,429.54,58a12.45,12.45,0,0,0-1.17,5.83V82.68H417.29V30h11.08V55.06l-2.49-3.19a14.22,14.22,0,0,1,5.9-5.9A18.15,18.15,0,0,1,440.51,43.92Z"/><path d="M484.39,83.25a22.17,22.17,0,0,1-10.76-2.56,19.38,19.38,0,0,1,0-34.25,22.49,22.49,0,0,1,10.76-2.52,22.84,22.84,0,0,1,10.86,2.52,19,19,0,0,1,7.46,7,19.31,19.31,0,0,1,2.69,10.19,18.67,18.67,0,0,1-10.15,17.11A22.51,22.51,0,0,1,484.39,83.25Zm0-9.09a9.84,9.84,0,0,0,5-1.24,9.05,9.05,0,0,0,3.48-3.66,11.65,11.65,0,0,0,1.31-5.68,11.41,11.41,0,0,0-1.31-5.68,9.16,9.16,0,0,0-3.48-3.58,9.71,9.71,0,0,0-4.93-1.25,9.89,9.89,0,0,0-5,1.25A9.18,9.18,0,0,0,476,57.9a11.52,11.52,0,0,0-1.31,5.68A11.77,11.77,0,0,0,476,69.26a9.08,9.08,0,0,0,3.52,3.66A9.75,9.75,0,0,0,484.39,74.16Z"/><path d="M512.79,82.68V44.48h10.58V55.35l-1.49-3.2A12.23,12.23,0,0,1,527.34,46a18.54,18.54,0,0,1,9.16-2.09V54.21a11.48,11.48,0,0,0-1.24-.21,9.52,9.52,0,0,0-1.17-.07,10.4,10.4,0,0,0-7.46,2.62c-1.84,1.76-2.77,4.45-2.77,8.1v18Z"/><path d="M548.93,39.16a7.11,7.11,0,0,1-5-1.78,6,6,0,0,1,0-8.8,7.16,7.16,0,0,1,5-1.78,7.44,7.44,0,0,1,5,1.67,5.42,5.42,0,0,1,2,4.3A6.07,6.07,0,0,1,554,37.35,7,7,0,0,1,548.93,39.16Zm-5.54,43.52V44.48h11.07v38.2Z"/><path d="M576.54,83.25A17.42,17.42,0,0,1,569,81.72,11.87,11.87,0,0,1,564,77.57a10.44,10.44,0,0,1-1.74-5.89,10.73,10.73,0,0,1,1.67-5.93,10.61,10.61,0,0,1,5.29-4,26.5,26.5,0,0,1,9.52-1.42h10.08v6.39h-9q-3.9,0-5.36,1.27a4.09,4.09,0,0,0-1.45,3.2,4,4,0,0,0,1.66,3.37,7.4,7.4,0,0,0,4.51,1.24,10.08,10.08,0,0,0,5.08-1.27,7,7,0,0,0,3.16-3.91l1.7,5.18a10,10,0,0,1-4.4,5.51A15.63,15.63,0,0,1,576.54,83.25Zm11.65-.57V75.23l-.71-1.64V60.25a7.11,7.11,0,0,0-2.17-5.54q-2.16-2-6.64-2a19.31,19.31,0,0,0-6,1,16.81,16.81,0,0,0-5.07,2.59l-3.91-7.74a22.61,22.61,0,0,1,7.53-3.44,34.68,34.68,0,0,1,8.95-1.17q8.73,0,13.56,4.11t4.82,12.85v21.8Z"/></g></g></svg>