<?xml version="1.0" encoding="utf-8"?>
<!-- Generator: Adobe Illustrator 25.4.1, SVG Export Plug-In . SVG Version: 6.00 Build 0)  -->
<svg version="1.1" id="Layer_1" xmlns="http://www.w3.org/2000/svg" xmlns:xlink="http://www.w3.org/1999/xlink" x="0px" y="0px"
	 viewBox="0 0 518 120" style="enable-background:new 0 0 518 120;" xml:space="preserve">
<style type="text/css">
	.st0{fill:#FA776C;}
	.st1{fill:#624CF5;}
</style>
<path d="M103.8,45.5h32.4v12.1h-32.4V45.5z M104.9,73.2h36.6v12.5h-52V18.5h50.8v12.5h-35.3V73.2z M166.4,85.7L144.7,34h15.5
	l18,44.4h-7.7L189.2,34h14.4l-21.8,51.6H166.4z M234,86.4c-5.9,0-11.1-1.2-15.6-3.5c-4.4-2.3-7.8-5.4-10.3-9.4
	c-2.4-4-3.6-8.6-3.6-13.7c0-5.2,1.2-9.8,3.6-13.7c2.4-4,5.7-7.2,9.9-9.4c4.2-2.3,8.9-3.5,14.1-3.5c5.1,0,9.6,1.1,13.6,3.3
	c4.1,2.1,7.3,5.2,9.7,9.2c2.4,4,3.6,8.7,3.6,14.3c0,0.6,0,1.2-0.1,2c-0.1,0.7-0.1,1.4-0.2,2h-42v-8.7h34.1l-5.8,2.6
	c0-2.7-0.5-5-1.6-7c-1.1-2-2.6-3.5-4.5-4.6c-1.9-1.2-4.2-1.7-6.7-1.7s-4.8,0.6-6.8,1.7c-1.9,1.1-3.4,2.7-4.5,4.7
	c-1.1,2-1.6,4.4-1.6,7.1v2.3c0,2.8,0.6,5.3,1.8,7.5c1.3,2.1,3,3.7,5.3,4.9c2.3,1.1,5,1.6,8.1,1.6c2.8,0,5.2-0.4,7.2-1.2
	c2.1-0.8,4-2.1,5.8-3.7l8,8.6c-2.4,2.7-5.3,4.8-8.9,6.2C242.8,85.7,238.6,86.4,234,86.4z M300.3,33.2c4.1,0,7.7,0.8,10.9,2.5
	c3.3,1.6,5.8,4.1,7.7,7.5c1.9,3.3,2.8,7.6,2.8,12.9v29.6h-15V58.4c0-4.2-0.9-7.2-2.8-9.2c-1.8-2-4.4-3-7.7-3c-2.4,0-4.5,0.5-6.4,1.5
	c-1.9,1-3.3,2.5-4.4,4.5c-1,2-1.5,4.7-1.5,7.9v25.5h-15V34h14.3v14.3l-2.7-4.3c1.9-3.5,4.5-6.1,8-8S295.9,33.2,300.3,33.2z
	 M356.4,86.4c-6.1,0-10.8-1.5-14.2-4.6c-3.4-3.1-5.1-7.8-5.1-13.9V22.6h15v45.1c0,2.2,0.6,3.9,1.7,5.1c1.2,1.2,2.7,1.7,4.7,1.7
	c2.4,0,4.4-0.6,6-1.9l4,10.6c-1.5,1.1-3.4,1.9-5.6,2.5C360.9,86.2,358.7,86.4,356.4,86.4z M329.1,46.7V35.2h35.8v11.5H329.1z
	 M377,85.7V14.4h15v71.2H377z M412.4,105c-2.7,0-5.3-0.4-8-1.2s-4.8-2-6.4-3.5l5.5-10.7c1.2,1,2.5,1.8,3.9,2.4
	c1.5,0.6,3,0.9,4.5,0.9c2.1,0,3.8-0.5,5-1.5c1.3-1,2.4-2.6,3.5-4.9l2.7-6.3l1.2-1.6L442.7,34h14.4l-23.3,54.8
	c-1.7,4.2-3.6,7.4-5.8,9.8c-2.1,2.4-4.5,4-7.1,5C418.4,104.6,415.5,105,412.4,105z M421.2,87.7l-23-53.7h15.5l17.9,43.2L421.2,87.7z
	"/>
<g>
	<path class="st0" d="M-241-204.1c0-7.8,8.5-12.6,15.1-8.6l25.1,15.1c6,3.6,9.7,10.1,9.7,17.1v17.4c0,7-3.7,13.5-9.7,17.1
		l-25.1,15.1c-6.7,4-15.1-0.8-15.1-8.6V-204.1z"/>
	<path class="st1" d="M-137.2-231.8c5.3,0,8,6.4,4.3,10.2l-13.3,13.7c-3.8,3.9-9,6.1-14.4,6.1h-25c-3.6,0-7.2-1-10.3-2.9l-26.7-16
		c-5.2-3.1-3-11.1,3.1-11.1L-137.2-231.8z"/>
	<path class="st1" d="M-137.2-111.8c5.3,0,8-6.4,4.3-10.2l-13.3-13.7c-3.8-3.9-9-6.1-14.4-6.1h-25c-3.6,0-7.2,1-10.3,2.9l-26.7,16
		c-5.2,3.1-3,11.1,3.1,11.1H-137.2z"/>
	<path class="st0" d="M-170-186.8L-170-186.8c8.3,0,15,6.7,15,15l0,0c0,8.3-6.7,15-15,15l0,0c-8.3,0-15-6.7-15-15l0,0
		C-185-180.1-178.3-186.8-170-186.8z"/>
	<g>
		<path d="M-119.9-141.8l-22.1-52.7h15.7l18.4,45.4h-7.8l19.2-45.4H-82l-22.2,52.7H-119.9z"/>
		<path d="M-49.6-141c-6,0-11.3-1.2-15.8-3.5c-4.5-2.4-8-5.6-10.5-9.7c-2.5-4.1-3.7-8.7-3.7-14c0-5.2,1.2-9.9,3.6-14
			c2.4-4.1,5.7-7.3,10-9.7c4.3-2.3,9.1-3.5,14.5-3.5c5.2,0,9.8,1.1,14,3.3c4.1,2.2,7.4,5.4,9.8,9.4c2.4,4.1,3.6,8.9,3.6,14.6
			c0,0.6,0,1.3-0.1,2c-0.1,0.8-0.1,1.5-0.2,2.1h-42.8v-8.9h34.8l-6,2.6c0.1-2.7-0.5-5.1-1.6-7.2c-1.1-2-2.6-3.6-4.6-4.8
			c-2-1.1-4.2-1.7-6.9-1.7c-2.6,0-4.9,0.6-6.9,1.7c-2,1.1-3.5,2.7-4.7,4.8c-1.1,2.1-1.7,4.5-1.7,7.3v2.4c0,2.9,0.7,5.5,2,7.6
			c1.3,2.2,3.1,3.8,5.4,4.9c2.3,1.1,5,1.7,8.2,1.7c2.7,0,5.2-0.4,7.3-1.3c2.1-0.8,4.1-2.1,5.8-3.8l8.1,8.8c-2.4,2.7-5.5,4.9-9.1,6.3
			C-40.6-141.7-44.8-141-49.6-141z"/>
		<path d="M18.1-195.3c4.2,0,7.9,0.8,11.2,2.5s5.9,4.2,7.8,7.6c1.9,3.4,2.8,7.8,2.8,13.2v30.2H24.7v-27.8c0-4.2-0.9-7.4-2.8-9.4
			c-1.9-2-4.5-3-7.9-3c-2.4,0-4.6,0.5-6.5,1.6c-1.9,1-3.4,2.6-4.5,4.6c-1.1,2-1.6,4.7-1.6,8v26.1h-15.3v-52.7H0.7v14.6l-2.7-4.4
			c1.9-3.5,4.6-6.2,8.1-8.1C9.6-194.4,13.6-195.3,18.1-195.3z"/>
		<path d="M47.4-181.6v-11.8H84v11.8H47.4z M75.3-141c-6.2,0-11-1.6-14.5-4.8c-3.5-3.2-5.2-7.9-5.2-14.2v-46.3H71v46
			c0,2.2,0.6,4,1.7,5.2c1.1,1.2,2.7,1.9,4.7,1.9c2.5,0,4.6-0.7,6.3-2l4,10.8c-1.5,1.1-3.3,1.9-5.5,2.5C79.9-141.3,77.6-141,75.3-141
			z"/>
		<path d="M113.3-154.5h37.3v12.7H97.5v-68.6h51.8v12.7h-36.1V-154.5z M112.1-182.9h33v12.4h-33V-182.9z"/>
		<path d="M184.4-141c-4.4,0-8.4-0.8-11.8-2.5c-3.4-1.7-6-4.3-7.9-7.8c-1.9-3.5-2.8-8-2.8-13.3v-29.8h15.3v27.4
			c0,4.4,0.9,7.7,2.8,9.8c1.9,2.1,4.5,3.1,7.9,3.1c2.4,0,4.4-0.5,6.3-1.6c1.8-1,3.3-2.6,4.4-4.7c1.1-2.1,1.6-4.7,1.6-7.8v-26.2h15.2
			v52.7h-14.5v-14.6l2.6,4.3c-1.8,3.7-4.4,6.4-7.8,8.3C192.2-141.9,188.5-141,184.4-141z"/>
		<path d="M229.4-122.8v-71.7H244v10.8l-0.3,15.7l1,15.6v29.7H229.4z M260.5-141c-4.4,0-8.2-1-11.6-2.9s-5.9-4.9-7.8-9
			c-1.9-4-2.8-9.1-2.8-15.2c0-6.2,0.9-11.3,2.6-15.3c1.8-4,4.3-7,7.7-8.9c3.4-2,7.3-2.9,11.8-2.9c5,0,9.5,1.1,13.5,3.4
			c4,2.3,7.1,5.4,9.4,9.5c2.3,4.1,3.5,8.8,3.5,14.3c0,5.6-1.2,10.3-3.5,14.4c-2.3,4-5.5,7.2-9.4,9.4C270-142.1,265.5-141,260.5-141z
			 M257.9-153.6c2.5,0,4.8-0.6,6.8-1.8c2-1.2,3.6-2.9,4.8-5c1.2-2.2,1.8-4.8,1.8-7.8c0-3.1-0.6-5.7-1.8-7.8s-2.8-3.8-4.8-4.9
			c-2-1.1-4.3-1.7-6.8-1.7s-4.8,0.6-6.9,1.7c-2,1.1-3.6,2.8-4.9,4.9c-1.2,2.2-1.8,4.8-1.8,7.8c0,3,0.6,5.6,1.8,7.8
			c1.2,2.2,2.8,3.9,4.9,5C253.1-154.1,255.4-153.6,257.9-153.6z"/>
		<path d="M329.2-195.3c4.2,0,7.9,0.8,11.2,2.5c3.3,1.7,5.9,4.2,7.8,7.6c1.9,3.4,2.8,7.8,2.8,13.2v30.2h-15.3v-27.8
			c0-4.2-0.9-7.4-2.8-9.4c-1.9-2-4.5-3-7.9-3c-2.4,0-4.6,0.5-6.5,1.6c-1.9,1-3.4,2.6-4.5,4.6c-1.1,2-1.6,4.7-1.6,8v26.1h-15.3v-72.7
			h15.3v34.6l-3.4-4.4c1.9-3.5,4.6-6.2,8.1-8.1C320.7-194.4,324.7-195.3,329.2-195.3z"/>
		<path d="M389.8-141c-5.6,0-10.5-1.2-14.8-3.5c-4.3-2.4-7.8-5.6-10.2-9.7c-2.5-4.1-3.7-8.7-3.7-14c0-5.3,1.2-10,3.7-14.1
			c2.5-4.1,5.9-7.3,10.2-9.6c4.3-2.3,9.3-3.5,14.8-3.5c5.6,0,10.6,1.2,15,3.5c4.4,2.3,7.8,5.5,10.3,9.6c2.5,4.1,3.7,8.8,3.7,14.1
			s-1.2,10-3.7,14c-2.5,4.1-5.9,7.3-10.3,9.6C400.4-142.2,395.4-141,389.8-141z M389.8-153.6c2.6,0,4.9-0.6,6.9-1.7
			c2-1.1,3.6-2.8,4.8-5c1.2-2.2,1.8-4.8,1.8-7.8c0-3.1-0.6-5.7-1.8-7.8c-1.2-2.2-2.8-3.8-4.8-4.9c-2-1.1-4.3-1.7-6.8-1.7
			c-2.5,0-4.8,0.6-6.9,1.7c-2,1.1-3.6,2.8-4.9,4.9s-1.8,4.8-1.8,7.8c0,3,0.6,5.6,1.8,7.8c1.2,2.2,2.8,3.9,4.9,5
			C385-154.1,387.3-153.6,389.8-153.6z"/>
		<path d="M429-141.8v-52.7h14.6v15l-2.1-4.4c1.6-3.7,4.1-6.5,7.5-8.5c3.5-1.9,7.7-2.9,12.6-2.9v14.2c-0.6-0.1-1.2-0.2-1.7-0.3
			c-0.6-0.1-1.1-0.1-1.6-0.1c-4.3,0-7.7,1.2-10.3,3.6c-2.5,2.4-3.8,6.1-3.8,11.2v24.9H429z"/>
		<path d="M478.8-201.9c-2.9,0-5.2-0.8-7-2.5c-1.8-1.6-2.6-3.7-2.6-6.1s0.9-4.4,2.6-6.1c1.8-1.6,4.1-2.5,7-2.5
			c2.8,0,5.1,0.8,6.9,2.3c1.8,1.5,2.7,3.5,2.7,5.9c0,2.5-0.9,4.7-2.6,6.3C484-202.7,481.7-201.9,478.8-201.9z M471.2-141.8v-52.7
			h15.3v52.7H471.2z"/>
		<path d="M517-141c-4.1,0-7.5-0.7-10.5-2.1c-2.9-1.4-5.2-3.3-6.8-5.7c-1.6-2.4-2.4-5.1-2.4-8.1c0-3.1,0.8-5.8,2.3-8.2
			c1.5-2.4,4-4.2,7.3-5.5c3.3-1.3,7.7-2,13.1-2h13.9v8.8h-12.3c-3.6,0-6.1,0.6-7.4,1.8c-1.3,1.2-2,2.6-2,4.4c0,2,0.8,3.5,2.3,4.7
			c1.5,1.1,3.6,1.7,6.2,1.7c2.6,0,4.9-0.6,7-1.8c2.1-1.2,3.5-3,4.4-5.4l2.4,7.2c-1.1,3.3-3.1,5.8-6.1,7.6
			C525.4-141.9,521.6-141,517-141z M533-141.8v-10.3l-1-2.3v-18.4c0-3.3-1-5.8-3-7.6c-2-1.8-5-2.7-9.2-2.7c-2.8,0-5.6,0.4-8.3,1.3
			c-2.7,0.9-5,2.1-7,3.6l-5.4-10.7c2.9-2.1,6.3-3.7,10.4-4.8c4.1-1.1,8.2-1.6,12.3-1.6c8,0,14.3,1.9,18.7,5.7
			c4.4,3.8,6.7,9.7,6.7,17.7v30.1H533z"/>
	</g>
</g>
</svg>
